PathFileType	4	(X/Y/Z)	Patient4_TMGait_0pt4_03_left_09.trc.trc
DataRate	CameraRate	NumFrames	NumMarkers	Units	OrigDataRate	OrigDataStartFrame	OrigNumFrames
77.348066298343	77.348066298343	4	33	mm	77.348066298343	53	       141
Frame#	Time	Sacral			L.Shoulder			Chest			R.Shoulder			Neck			R.ASIS			L.ASIS			R.Thigh.Superior			R.Thigh.Lateral			R.Thigh.Inferior			R.Patella			L.Thigh.Superior			L.Thigh.Lateral			L.Thigh.Inferior			L.Patella			L.Shank.Superior			L.Shank.Lateral			L.Shank.Inferior			R.Shank.Superior			R.Shank.Lateral			R.Shank.Inferior			R.Heel			R.Midfoot.Superior			R.Midfoot.Lateral			R.Toe			L.Heel			L.Midfoot.Lateral			L.Midfoot.Superior			L.Toe			L.Elbow			L.Wrist			R.Elbow			R.Wrist			
		X1	Y1	Z1	X2	Y2	Z2	X3	Y3	Z3	X4	Y4	Z4	X5	Y5	Z5	X6	Y6	Z6	X7	Y7	Z7	X8	Y8	Z8	X9	Y9	Z9	X10	Y10	Z10	X11	Y11	Z11	X12	Y12	Z12	X13	Y13	Z13	X14	Y14	Z14	X15	Y15	Z15	X16	Y16	Z16	X17	Y17	Z17	X18	Y18	Z18	X19	Y19	Z19	X20	Y20	Z20	X21	Y21	Z21	X22	Y22	Z22	X23	Y23	Z23	X24	Y24	Z24	X25	Y25	Z25	X26	Y26	Z26	X27	Y27	Z27	X28	Y28	Z28	X29	Y29	Z29	X30	Y30	Z30	X31	Y31	Z31	X32	Y32	Z32	X33	Y33	Z33	

53	12.102285714286	803.344852762939	1006.623047901887	438.791683247294	980.049888058189	1431.933866327252	236.463247371240	1086.005094655090	1367.287111693272	397.570192727244	1006.337766415263	1442.991963038344	572.598420687004	964.331391856744	1497.543138372171	393.118108228773	1037.401330368366	947.850109559805	548.674083274605	1014.169435845141	964.355439539959	275.059369687367	1119.894770244343	775.211161270321	520.065161685958	1080.937961139348	654.516789882214	597.547222669572	1170.113793226035	615.010059797894	518.765626077601	1189.312035976881	504.239652277214	541.394842682738	1063.634602207702	751.650304825494	298.481168046104	970.737767567912	636.285413188996	245.817933390147	1057.700411208871	558.417368992502	303.990940399399	1057.292858306364	489.250472393944	314.518418213930	1029.416331489089	417.192880452514	308.356205275165	936.010746835278	303.949277981955	260.296686877573	987.167925406393	192.574647765843	332.071449648539	1115.760343086361	427.622036967728	552.063783690739	998.691592791727	386.327451549220	619.745423340417	983.807062403184	276.428050351393	572.446870380112	783.901288492500	213.785478758246	558.995903868536	954.551249224910	152.692867493884	585.701361757927	847.162317376105	149.807484451986	624.843713443059	1020.007236562342	37.421021844861	600.942742500544	858.937611458686	38.674043809780	381.553696266882	929.192670761880	34.738540439808	297.416300419961	1013.296678717467	95.987650319034	321.243047931055	1141.210488593985	43.804332197856	287.579414072375	973.968089823302	1089.551753548172	94.309697329736	1138.744596873510	883.357492102292	95.883514653103	963.623718331238	1098.850492931207	699.923197091886	1026.767959536649	844.692498810097	696.765313682305	
54	12.115214285714	802.488733266388	1007.016380618646	437.036145771869	981.125531120140	1432.486084417702	235.938490053259	1085.441395939198	1367.767041511782	398.041048481027	1004.080150965941	1443.408359510650	572.272161722723	963.845517571873	1498.035475086767	392.574760569285	1035.896465346725	948.793899875302	548.398144794055	1014.239475877499	964.657960087038	274.675270185914	1120.071176942822	777.984615885380	519.956739580722	1082.659967013154	657.023871084027	597.727444395336	1172.198214989022	618.446269696957	518.855443105679	1193.278507425303	508.366154029433	541.789542547887	1062.097286852135	751.039330625346	298.578912405156	968.279155334146	636.354926596588	245.551382358123	1054.318715598887	557.821159187518	304.099462209368	1053.317790929867	488.806754212572	314.723442808348	1025.257015894158	416.924925300163	308.404454888769	931.569121730060	303.946655302990	260.189834460804	982.336504413533	192.476442325356	332.083067819680	1121.626914934982	430.300833601059	552.494543440031	1005.907002680522	385.534651722955	620.076514707493	994.467221472971	275.174239252950	572.910845496815	796.758067135244	205.881029548691	559.371533369430	969.415620108441	151.019759745785	586.627706208474	862.097643330386	144.172205355568	625.298080241700	1038.433036142476	37.870682782958	601.371078631256	853.682307026313	38.666658509982	381.486911582215	923.979831585829	34.724688122160	297.350021984500	1008.091783735235	95.972076164661	321.207407476922	1136.007400054142	43.796946038305	287.552396042276	980.547003387369	1090.849114974095	92.290312247710	1151.208103650594	889.515847120540	94.918854303083	953.267440553463	1100.618108787578	699.332278796601	1010.742492899026	845.065186402236	698.176579635424	
55	12.128142857143	801.708812852161	1007.439408861921	435.428955245434	982.296676339019	1432.995794394562	235.533760114047	1084.950132773211	1368.223467763111	398.622566246318	1001.905140941011	1443.849486910110	572.018523957708	963.428717026194	1498.489316316125	392.171068580164	1034.389246707994	949.697486927562	548.309218101724	1014.379477650889	964.926673425668	274.490833028285	1119.923409210951	780.386437811240	520.071701938424	1083.802584985245	659.216654733088	598.073742579037	1173.462147831991	621.348649117758	519.010474369274	1196.296738190155	512.207379193877	542.256092226955	1060.467482466259	750.417120411567	299.104012691281	965.811798745832	636.444532201907	245.416628406677	1050.788171324140	557.233344841765	304.447038256458	1049.142226387082	488.383503600857	315.109846378176	1020.946375667344	416.681170400440	308.580926249220	927.056908772520	303.941174742670	260.182448010709	977.449668325909	192.383598613045	332.161784916039	1126.952080401177	432.629763437050	553.082023902588	1013.098545096674	383.749975503812	620.731686595956	1005.711688502791	273.004836056993	573.661721347588	810.823212553086	195.938186081756	560.224164855566	985.605856154662	148.436703759777	587.872043566154	878.589836822626	137.082501208754	626.265287356294	1058.845013160523	38.187193838726	602.257430122150	848.429843027173	38.650301509302	381.436736985154	918.765813621697	34.711501014372	297.300236976320	1002.882645137395	95.958324940749	321.197490573967	1130.800334521394	43.796447680307	287.533765653894	986.891635513750	1092.179082736190	90.547179284544	1163.477890754291	896.035560856944	94.180982362573	943.252128050885	1102.545400813997	698.719367837064	995.630219783664	845.877578570052	699.247650279336	
56	12.141071428571	800.990988697874	1007.864840098342	433.969595045180	983.556313883146	1433.424131795683	235.250320228647	1084.537214184596	1368.622118656315	399.312574907028	999.829731785718	1444.284606565594	571.843823914589	963.090990825921	1498.876101446998	391.899820334993	1032.892419795819	950.517470257995	548.413528210214	1014.581477064575	965.139132703361	274.504547553005	1119.447616476655	782.349140673981	520.376504052256	1084.364677274520	661.033747277936	598.573829338999	1173.895642120186	623.639191771462	519.211244962445	1198.351312808828	515.686428667704	542.763591090340	1058.760946135628	749.784329684825	300.017085887344	963.357373363410	636.544805677082	245.386027708736	1047.143480376333	556.653063963964	304.991039523459	1044.807563567907	487.975633165693	315.638672987241	1016.522126245472	416.451539471505	308.857147217221	922.498174802871	303.927418248985	260.245072901596	972.520068327208	192.287962128178	332.289924891884	1131.713558723430	434.590534388618	553.806276271680	1020.285139027403	381.083487667804	621.706743554905	1017.484362128289	270.092574968898	574.690131441670	826.133853056883	184.349542839178	561.555814080791	1002.967018909157	145.170873220742	589.383592488724	896.562576809372	128.911574831581	627.742552800588	1080.936558046965	38.554046592301	603.596108814566	843.184215338022	38.626259783861	381.399752652381	913.552169711267	34.697408088966	297.264491542378	997.671495459887	95.944192261187	321.209398984761	1125.592021885208	43.797755015129	287.523279096235	993.004474462294	1093.491774236843	89.058464287852	1175.517725986759	902.870738296518	93.649306754128	933.667845155183	1104.562654181999	698.080714288972	981.476071164686	847.007661132135	700.002572951535	
